<?xml version="1.0" standalone="no"?>
<!DOCTYPE svg PUBLIC "-//W3C//DTD SVG 20010904//EN"
 "http://www.w3.org/TR/2001/REC-SVG-20010904/DTD/svg10.dtd">
<svg version="1.0" xmlns="http://www.w3.org/2000/svg"
 width="700.000000pt" height="700.000000pt" viewBox="0 0 700.000000 700.000000"
 preserveAspectRatio="xMidYMid meet">
<metadata>
Created by potrace 1.14, written by Peter Selinger 2001-2017
</metadata>
<g transform="translate(0.000000,700.000000) scale(0.100000,-0.100000)"
fill="#000000" stroke="none">
<path d="M2806 6049 c-349 -48 -715 -247 -1021 -554 -188 -188 -305 -348 -365
-498 -16 -40 -47 -153 -69 -252 -22 -99 -56 -247 -75 -330 -49 -207 -64 -302
-71 -441 -7 -140 -22 -244 -41 -290 -17 -41 -80 -92 -164 -134 -96 -48 -285
-180 -391 -273 -158 -140 -316 -354 -366 -499 -49 -142 -41 -384 18 -508 148
-312 587 -513 1369 -624 746 -107 1475 -81 2279 80 1065 213 1798 551 2340
1078 303 295 431 513 431 731 0 198 -170 342 -555 470 -71 24 -159 49 -195 55
-89 16 -160 39 -193 62 -56 39 -94 144 -127 351 -60 376 -198 855 -324 1122
-93 197 -166 283 -280 335 -94 43 -166 55 -326 54 -166 0 -257 -16 -499 -90
-156 -48 -276 -80 -347 -93 -104 -20 21 46 149 79 75 18 101 44 55 54 -38 9
-391 65 -573 92 -190 28 -537 40 -659 23z"/>
</g>
</svg>
