<!DOCTYPE svg PUBLIC "-//W3C//DTD SVG 20010904//EN" "http://www.w3.org/TR/2001/REC-SVG-20010904/DTD/svg10.dtd">
<svg version="1.0" xmlns="http://www.w3.org/2000/svg" width="400px" height="400px" viewBox="0 0 4000 4000" preserveAspectRatio="xMidYMid meet">
<g id="layer1" fill="#ffffff" stroke="none">
 <path d="M0 2000 l0 -2000 2000 0 2000 0 0 2000 0 2000 -2000 0 -2000 0 0 -2000z m2510 706 c73 -7 219 -44 265 -69 76 -40 131 -132 161 -272 36 -173 14 -500 -45 -655 -53 -140 -180 -220 -374 -236 -90 -7 -195 8 -233 32 -22 15 -22 15 -29 -52 -7 -61 -2 -174 11 -284 5 -41 3 -49 -24 -78 -29 -31 -32 -32 -117 -32 -86 0 -87 0 -123 36 l-35 35 9 187 c13 269 7 642 -16 987 -11 165 -20 310 -20 322 0 12 14 35 31 52 l30 31 202 2 c111 2 211 2 222 1 11 -1 49 -4 85 -7z m-1386 -35 l31 -31 5 -167 5 -166 36 44 c20 24 64 96 99 159 100 184 109 190 275 190 110 0 117 -1 140 -25 14 -13 25 -32 25 -41 0 -9 -29 -55 -64 -103 -75 -102 -141 -195 -241 -346 l-74 -110 45 -90 c44 -85 163 -278 283 -453 92 -136 88 -128 71 -159 -15 -27 -20 -28 -99 -31 -95 -3 -132 12 -186 76 -59 70 -303 312 -315 312 -8 0 -10 -12 -6 -37 6 -47 11 -329 8 -476 -2 -105 -3 -109 -31 -138 -26 -25 -37 -29 -87 -29 -63 0 -112 23 -132 62 -11 23 -32 867 -32 1323 l0 207 35 35 c35 35 36 36 106 31 63 -5 75 -9 103 -37z"/>
 <path d="M2379 2440 c-63 -8 -105 -29 -133 -67 -25 -34 -37 -233 -26 -416 8 -142 17 -164 81 -202 28 -17 52 -20 139 -20 132 0 174 17 207 85 40 80 53 370 22 490 -14 57 -68 104 -136 119 -82 18 -92 19 -154 11z"/>
 </g>
<g id="layer2" fill="#06b9c0" stroke="none">
 <path d="M2203 2712 l-202 -2 -30 -31 c-17 -17 -31 -40 -31 -52 0 -12 9 -157 20 -322 23 -345 29 -718 16 -987 l-9 -187 35 -35 c36 -36 37 -36 123 -36 85 0 88 1 117 32 27 29 29 37 24 78 -13 110 -18 223 -11 284 7 67 7 67 29 52 38 -24 143 -39 233 -32 194 16 321 96 374 236 59 155 81 482 45 655 -30 140 -85 232 -161 272 -46 25 -192 62 -265 69 -36 3 -74 6 -85 7 -11 1 -111 1 -222 -1z m330 -283 c68 -15 122 -62 136 -119 31 -120 18 -410 -22 -490 -33 -68 -75 -85 -207 -85 -87 0 -111 3 -139 20 -64 38 -73 60 -81 202 -11 183 1 382 26 416 28 38 70 59 133 67 62 8 72 7 154 -11z"/>
 <path d="M915 2677 l-35 -35 0 -207 c0 -456 21 -1300 32 -1323 20 -39 69 -62 132 -62 50 0 61 4 87 29 28 29 29 33 31 138 3 147 -2 429 -8 476 -4 25 -2 37 6 37 12 0 256 -242 315 -312 54 -64 91 -79 186 -76 79 3 84 4 99 31 17 31 21 23 -71 159 -120 175 -239 368 -283 453 l-45 90 74 110 c100 151 166 244 241 346 35 48 64 94 64 103 0 9 -11 28 -25 41 -23 24 -30 25 -140 25 -166 0 -175 -6 -275 -190 -35 -63 -79 -135 -99 -159 l-36 -44 -5 166 -5 167 -31 31 c-28 28 -40 32 -103 37 -70 5 -71 4 -106 -31z"/>
 </g>

</svg>